<svg xmlns="http://www.w3.org/2000/svg" viewBox="0 0 410 404">
  <defs>
    <linearGradient id="a" x1="72.695%" x2="17.503%" y1="0%" y2="37.421%">
      <stop offset="0%" stop-color="#41D1FF"/>
      <stop offset="100%" stop-color="#BD34FE"/>
    </linearGradient>
    <linearGradient id="b" x1="72.695%" x2="17.503%" y1="0%" y2="37.421%">
      <stop offset="0%" stop-color="#FFEA83"/>
      <stop offset="100%" stop-color="#FFDD35"/>
    </linearGradient>
  </defs>
  <path fill="url(#a)" d="M399.641 59.525l-183.998 329.03c-4.934 8.817-18.043 8.817-22.977 0L10.359 59.525c-4.934-8.817 1.234-19.848 11.488-19.848h366.306c10.254 0 16.422 11.031 11.488 19.848z"/>
  <path fill="url(#b)" d="M292.965 1.574L156.801 28.928a4.02 4.02 0 00-3.15 3.872L145.247 176.7c-.412 2.385 1.96 4.188 4.115 3.042l55.964-23.582a11.499 11.499 0 018.16-.319l75.128 33.57c3.785 1.691 7.693-2.717 5.249-6.323l-87.18-123.06a4.02 4.02 0 01.74-5.28l61.725-48.393c1.933-1.515 4.624.908 3.582 3.116z"/>
</svg>

